<svg width="42" height="43" viewBox="0 0 42 43" fill="none" xmlns="http://www.w3.org/2000/svg">
<path d="M14.4504 41.999L15.1857 41.587C16.1058 41.0688 16.7744 40.6971 16.7744 40.6971C16.7744 40.6971 17.4445 40.2148 18.0039 39.1797L25.4164 25.4387L36.8242 23.8177C36.8242 23.8177 40.6891 23.3801 41.2587 21.0138C41.2778 20.9319 41.2935 20.8472 41.3054 20.7628C41.2915 20.6796 41.2732 20.5972 41.2506 20.5159C40.5772 18.1757 36.6982 17.9082 36.6982 17.9082L25.2307 16.7852L17.2279 3.38515C16.6243 2.37629 15.9316 1.92465 15.9316 1.92465L14.3065 1.1033L13.5539 0.724261C12.6321 0.259591 12.5823 0.661962 12.6359 0.945297L12.6983 1.16385L17.3755 17.3894L5.95534 18.6591L3.26506 16.033C3.26506 16.033 2.36367 15.1339 1.30516 14.9978L0.569121 14.9024L0.299616 14.8671C0.104607 14.8692 -0.142481 14.9961 0.246663 15.729L3.36056 21.5885L0.506664 27.5793C0.149806 28.328 0.39884 28.4415 0.597588 28.438L0.864864 28.3907L1.59621 28.2648C2.64819 28.0818 3.50934 27.1441 3.50934 27.1441L6.08207 24.4035L17.5418 25.1848L13.5749 41.5977L13.5216 41.8181C13.4816 42.1035 13.5473 42.5051 14.4504 41.999Z" fill="#EE7F22"/>
</svg>
